<svg xmlns="http://www.w3.org/2000/svg" width="682.667" height="682.667" preserveAspectRatio="xMidYMid meet" version="1.0" viewBox="0 0 512 512"><metadata>Created by potrace 1.11, written by Peter Selinger 2001-2013</metadata><g fill="#000" stroke="none"><path d="M411 5105 c-102 -23 -185 -67 -255 -138 -64 -63 -92 -107 -130 -207 l-21 -55 -3 -2107 c-2 -1839 0 -2117 13 -2179 40 -196 159 -328 355 -395 53 -18 123 -19 2190 -19 2067 0 2137 1 2190 19 145 50 256 142 310 259 64 136 61 -1 58 2315 l-3 2107 -21 55 c-38 100 -66 144 -130 207 -71 72 -153 115 -260 138 -100 21 -4194 21 -4293 0z m2372 -1414 c209 -55 356 -200 402 -393 19 -80 19 -264 1 -360 -43 -223 -175 -394 -380 -493 -128 -61 -207 -77 -420 -82 l-188 -5 6 -177 c3 -97 7 -239 8 -316 l3 -140 -204 -3 c-113 -1 -208 1 -212 5 -4 5 -2 141 5 303 11 279 9 658 -8 1412 l-6 268 203 3 c111 2 317 3 457 1 220 -2 266 -5 333 -23z m-1468 -538 c-4 -307 -7 -692 -6 -856 1 -325 -7 -397 -54 -492 -49 -101 -155 -203 -294 -284 -89 -53 -253 -123 -262 -114 -18 19 -129 220 -129 234 0 9 40 40 96 75 116 71 193 150 226 231 l23 58 -2 575 c-1 316 -5 630 -9 697 l-6 123 -162 -6 c-208 -9 -198 -17 -184 161 5 72 11 136 14 143 3 9 87 12 380 12 l377 0 -8 -557z m2588 105 c-4 -249 -8 -615 -8 -813 l0 -360 331 -3 c331 -2 332 -2 346 -25 12 -19 11 -44 -2 -177 l-15 -155 -538 -3 -538 -2 8 212 c10 270 10 671 0 1291 l-8 487 216 0 216 0 -8 -452z" transform="translate(0.000000,512.000000) scale(0.100000,-0.100000)"/><path d="M2269 3393 l-46 -4 -6 -127 c-4 -70 -7 -229 -7 -353 l0 -226 140 -7 c136 -7 142 -7 196 18 68 31 96 53 140 108 49 61 75 153 76 263 1 162 -39 243 -146 295 -62 31 -74 33 -184 35 -64 2 -138 1 -163 -2z" transform="translate(0.000000,512.000000) scale(0.100000,-0.100000)"/></g></svg>